<?xml version="1.0" encoding="utf-8"?>
<!-- Generator: Adobe Illustrator 18.0.0, SVG Export Plug-In . SVG Version: 6.00 Build 0)  -->
<!DOCTYPE svg PUBLIC "-//W3C//DTD SVG 1.1//EN" "http://www.w3.org/Graphics/SVG/1.1/DTD/svg11.dtd">
<svg version="1.1" id="ecommerce_1_" xmlns="http://www.w3.org/2000/svg" xmlns:xlink="http://www.w3.org/1999/xlink" x="0px"
	 y="0px" viewBox="0 0 115 115" style="enable-background:new 0 0 115 115;" xml:space="preserve">
<style type="text/css">
	.st0{fill:#FFEEAD;}
	.st1{fill:#C9B77D;}
	.st2{fill:#99734A;}
	.st3{fill:#FF6F69;}
	.st4{fill:#96CEB4;}
	.st5{fill:none;}
	.st6{fill:#AA9865;}
	.st7{fill:#71A58A;}
	.st8{fill:#FFCC5C;}
	.st9{fill:#825E3B;}
	.st10{fill:#639376;}
	.st11{fill:#E05858;}
	.st12{fill:#C1821E;}
	.st13{fill:#D6A041;}
	.st14{fill:#B28559;}
	.st15{fill:#BF4343;}
	.st16{fill:#D3C089;}
	.st17{fill:#7C5C3C;}
	.st18{fill:#FDCC5C;}
	.st19{fill:#FFFFFF;}
</style>
<g id="inventory_management_1_">
	<g>
		<g>
			<g>
				<path class="st1" d="M5.017,61.423v48.459c0,2.827,2.292,5.118,5.118,5.118h48.007c2.827,0,5.118-2.291,5.118-5.118V61.423
					H5.017z"/>
			</g>
		</g>
		<g>
			<g>
				<g>
					<path class="st2" d="M19.551,108.266l-2.659-4.763c-0.264-0.474-0.979-0.474-1.244,0l-2.659,4.763
						c-0.248,0.445,0.091,0.981,0.622,0.981h1.231v1.639c0,0.369,0.315,0.668,0.704,0.668h1.449c0.389,0,0.704-0.299,0.704-0.668
						v-1.639h1.231C19.46,109.247,19.8,108.711,19.551,108.266z"/>
				</g>
			</g>
			<g>
				<g>
					<path class="st2" d="M51.355,108.266l-2.659-4.763c-0.264-0.474-0.979-0.474-1.244,0l-2.659,4.763
						c-0.248,0.445,0.091,0.981,0.622,0.981h1.231v1.639c0,0.369,0.315,0.668,0.704,0.668h1.449c0.389,0,0.704-0.299,0.704-0.668
						v-1.639h1.231C51.264,109.247,51.603,108.711,51.355,108.266z"/>
				</g>
			</g>
		</g>
		<g>
			<g>
				<path class="st2" d="M28.716,61.423v10.24h0.474c0.093-0.416,0.463-0.728,0.907-0.728s0.814,0.312,0.907,0.728h0.694
					c0.093-0.416,0.463-0.728,0.907-0.728s0.814,0.312,0.907,0.728h0.694c0.093-0.416,0.463-0.728,0.907-0.728
					c0.444,0,0.814,0.312,0.907,0.728h0.694c0.093-0.416,0.463-0.728,0.907-0.728c0.444,0,0.814,0.312,0.907,0.728h0.694
					c0.093-0.416,0.463-0.728,0.907-0.728c0.444,0,0.814,0.312,0.907,0.728h0.474v-10.24H28.716z"/>
			</g>
		</g>
		<g>
			<g>
				<path class="st0" d="M59.095,50.109c-0.779-2.117-2.796-3.524-5.052-3.524H14.339c-2.256,0-4.273,1.407-5.052,3.524
					l-4.27,11.313H63.26L59.095,50.109z"/>
			</g>
		</g>
		<g>
			<g>
				<polygon class="st14" points="40.292,46.586 29.895,46.586 28.676,61.423 41.479,61.423 				"/>
			</g>
		</g>
		<g>
			<g>
				<path class="st2" d="M41.031,105.262c-0.093,0.395-0.463,0.691-0.906,0.691c-0.444,0-0.814-0.296-0.907-0.691h-0.694
					c-0.093,0.395-0.463,0.691-0.907,0.691c-0.444,0-0.814-0.296-0.907-0.691h-0.694c-0.093,0.395-0.463,0.691-0.907,0.691
					c-0.444,0-0.814-0.296-0.907-0.691H33.51c-0.093,0.395-0.463,0.691-0.907,0.691c-0.444,0-0.814-0.296-0.907-0.691h-0.694
					c-0.093,0.395-0.463,0.691-0.907,0.691c-0.444,0-0.814-0.296-0.907-0.691h-0.474v9.722h12.79v-9.722H41.031z"/>
			</g>
		</g>
		<g>
			<g>
				<path class="st2" d="M19.355,66.543H10.97c-0.279,0-0.504,0.226-0.504,0.504s0.226,0.504,0.504,0.504h8.386
					c0.279,0,0.504-0.226,0.504-0.504S19.634,66.543,19.355,66.543z"/>
			</g>
		</g>
		<g>
			<g>
				<path class="st2" d="M19.355,69.216H10.97c-0.279,0-0.504,0.226-0.504,0.504c0,0.278,0.226,0.504,0.504,0.504h8.386
					c0.279,0,0.504-0.226,0.504-0.504C19.86,69.441,19.634,69.216,19.355,69.216z"/>
			</g>
		</g>
		<g>
			<g>
				<path class="st2" d="M19.355,71.888H10.97c-0.279,0-0.504,0.226-0.504,0.504s0.226,0.504,0.504,0.504h8.386
					c0.279,0,0.504-0.226,0.504-0.504S19.634,71.888,19.355,71.888z"/>
			</g>
		</g>
		<g>
			<g>
				<path class="st2" d="M19.355,74.561H10.97c-0.279,0-0.504,0.226-0.504,0.504c0,0.278,0.226,0.504,0.504,0.504h8.386
					c0.279,0,0.504-0.226,0.504-0.504C19.86,74.787,19.634,74.561,19.355,74.561z"/>
			</g>
		</g>
		<g>
			<g>
				<g>
					<path class="st2" d="M19.914,86.013l-1.228-1.815l0.355-0.219c0.338-0.208,0.308-0.709-0.053-0.875l-1.691-0.779
						c-0.069-0.032-0.139-0.046-0.208-0.046c-0.256,0-0.487,0.201-0.497,0.481l-0.065,1.86c-0.01,0.299,0.233,0.516,0.498,0.516
						c0.087,0,0.176-0.023,0.26-0.075l0.474-0.292l1.249,1.847h-2.154c0.068,0.134,0.111,0.281,0.116,0.436
						c0.007,0.239-0.072,0.465-0.211,0.651h2.249c0.401,0,0.769-0.221,0.958-0.574C20.157,86.775,20.136,86.346,19.914,86.013z"/>
				</g>
			</g>
			<g>
				<g>
					<path class="st2" d="M16.045,80.196c-0.202-0.303-0.541-0.485-0.905-0.485c-0.364,0-0.704,0.182-0.905,0.485l-1.26,1.872
						l-0.395-0.262c-0.087-0.057-0.181-0.084-0.273-0.084c-0.259,0-0.499,0.206-0.499,0.499l0.004,1.862
						c0,0.286,0.235,0.497,0.497,0.497c0.064,0,0.129-0.012,0.194-0.04l1.715-0.723c0.366-0.154,0.412-0.654,0.081-0.873
						l-0.417-0.276l1.259-1.87l1.015,1.526c0.165-0.344,0.511-0.579,0.916-0.586L16.045,80.196z"/>
				</g>
			</g>
			<g>
				<g>
					<path class="st2" d="M16.193,86.66l-1.58-0.984c-0.084-0.052-0.174-0.076-0.262-0.076c-0.264,0-0.507,0.215-0.498,0.513
						l0.015,0.501h-2.597l0.997-1.499c-0.402-0.016-0.745-0.257-0.903-0.605l-0.999,1.502c-0.222,0.334-0.242,0.763-0.053,1.116
						c0.189,0.353,0.558,0.574,0.958,0.574H13.9l0.014,0.472c0.009,0.287,0.246,0.483,0.499,0.483c0.097,0,0.196-0.029,0.286-0.093
						l1.518-1.077C16.508,87.282,16.495,86.848,16.193,86.66z"/>
				</g>
			</g>
		</g>
	</g>
	<g>
		<g>
			<g>
				<path class="st1" d="M5.017,5.944v48.459c0,2.827,2.292,5.118,5.118,5.118h48.007c2.827,0,5.118-2.292,5.118-5.118V5.944H5.017z
					"/>
			</g>
		</g>
		<g>
			<g>
				<g>
					<path class="st2" d="M19.551,52.787l-2.659-4.763c-0.264-0.474-0.979-0.474-1.244,0l-2.659,4.763
						c-0.248,0.445,0.091,0.981,0.622,0.981h1.231v1.639c0,0.369,0.315,0.668,0.704,0.668h1.449c0.389,0,0.704-0.299,0.704-0.668
						v-1.639h1.231C19.46,53.768,19.8,53.232,19.551,52.787z"/>
				</g>
			</g>
			<g>
				<g>
					<path class="st2" d="M51.355,52.787l-2.659-4.763c-0.264-0.474-0.979-0.474-1.244,0l-2.659,4.763
						c-0.248,0.445,0.091,0.981,0.622,0.981h1.231v1.639c0,0.369,0.315,0.668,0.704,0.668h1.449c0.389,0,0.704-0.299,0.704-0.668
						v-1.639h1.231C51.264,53.768,51.603,53.232,51.355,52.787z"/>
				</g>
			</g>
		</g>
		<g>
			<g>
				<path class="st2" d="M28.716,5.944v10.24h0.474c0.093-0.416,0.463-0.728,0.907-0.728s0.814,0.312,0.907,0.728h0.694
					c0.093-0.416,0.463-0.728,0.907-0.728s0.814,0.312,0.907,0.728h0.694c0.093-0.416,0.463-0.728,0.907-0.728
					c0.444,0,0.814,0.312,0.907,0.728h0.694c0.093-0.416,0.463-0.728,0.907-0.728c0.444,0,0.814,0.312,0.907,0.728h0.694
					c0.093-0.416,0.463-0.728,0.907-0.728c0.444,0,0.814,0.312,0.907,0.728h0.474V5.944H28.716z"/>
			</g>
		</g>
		<g>
			<g>
				<path class="st0" d="M59.095,1.412C58.316,0.563,56.299,0,54.043,0H14.339c-2.256,0-4.273,0.563-5.052,1.412l-4.27,4.533H63.26
					L59.095,1.412z"/>
			</g>
		</g>
		<g>
			<g>
				<polygon class="st14" points="40.292,0 29.895,0 28.716,5.944 41.479,5.944 				"/>
			</g>
		</g>
		<g>
			<g>
				<path class="st2" d="M40.85,49.783c-0.091,0.395-0.452,0.691-0.887,0.691c-0.434,0-0.796-0.296-0.887-0.691h-0.679
					c-0.091,0.395-0.452,0.691-0.887,0.691c-0.434,0-0.796-0.296-0.887-0.691h-0.679c-0.09,0.395-0.452,0.691-0.887,0.691
					s-0.796-0.296-0.887-0.691h-0.679c-0.091,0.395-0.452,0.691-0.887,0.691c-0.434,0-0.796-0.296-0.887-0.691h-0.679
					c-0.09,0.395-0.452,0.691-0.887,0.691c-0.434,0-0.796-0.296-0.887-0.691h-0.464v9.722h12.509v-9.722H40.85z"/>
			</g>
		</g>
		<g>
			<g>
				<path class="st2" d="M19.355,11.064H10.97c-0.279,0-0.504,0.226-0.504,0.504s0.226,0.504,0.504,0.504h8.386
					c0.279,0,0.504-0.226,0.504-0.504S19.634,11.064,19.355,11.064z"/>
			</g>
		</g>
		<g>
			<g>
				<path class="st2" d="M19.355,13.736H10.97c-0.279,0-0.504,0.226-0.504,0.504c0,0.279,0.226,0.504,0.504,0.504h8.386
					c0.279,0,0.504-0.226,0.504-0.504C19.86,13.962,19.634,13.736,19.355,13.736z"/>
			</g>
		</g>
		<g>
			<g>
				<path class="st2" d="M19.355,16.409H10.97c-0.279,0-0.504,0.226-0.504,0.504c0,0.278,0.226,0.504,0.504,0.504h8.386
					c0.279,0,0.504-0.226,0.504-0.504C19.86,16.635,19.634,16.409,19.355,16.409z"/>
			</g>
		</g>
		<g>
			<g>
				<path class="st2" d="M19.355,19.082H10.97c-0.279,0-0.504,0.226-0.504,0.504s0.226,0.504,0.504,0.504h8.386
					c0.279,0,0.504-0.226,0.504-0.504S19.634,19.082,19.355,19.082z"/>
			</g>
		</g>
		<g>
			<g>
				<g>
					<path class="st2" d="M19.914,30.534l-1.228-1.815l0.355-0.219c0.338-0.208,0.308-0.709-0.053-0.875l-1.691-0.779
						c-0.069-0.032-0.139-0.046-0.208-0.046c-0.256,0-0.487,0.201-0.497,0.481l-0.065,1.86c-0.01,0.299,0.233,0.515,0.498,0.515
						c0.087,0,0.176-0.023,0.26-0.075l0.474-0.292l1.249,1.847h-2.154c0.068,0.134,0.111,0.281,0.116,0.436
						c0.007,0.239-0.072,0.465-0.211,0.651h2.249c0.401,0,0.769-0.22,0.958-0.574C20.157,31.296,20.136,30.867,19.914,30.534z"/>
				</g>
			</g>
			<g>
				<g>
					<path class="st2" d="M16.045,24.716c-0.202-0.303-0.541-0.485-0.905-0.485c-0.364,0-0.704,0.182-0.905,0.485l-1.26,1.872
						l-0.395-0.262c-0.087-0.058-0.181-0.084-0.273-0.084c-0.259,0-0.499,0.206-0.499,0.499l0.004,1.861
						c0,0.286,0.235,0.497,0.497,0.497c0.064,0,0.129-0.012,0.194-0.04l1.715-0.723c0.366-0.154,0.412-0.654,0.081-0.873
						l-0.417-0.276l1.259-1.87l1.015,1.526c0.165-0.344,0.511-0.579,0.916-0.586L16.045,24.716z"/>
				</g>
			</g>
			<g>
				<g>
					<path class="st2" d="M16.193,31.181l-1.58-0.984c-0.084-0.052-0.174-0.076-0.262-0.076c-0.264,0-0.507,0.215-0.498,0.513
						l0.015,0.501h-2.597l0.997-1.499c-0.402-0.016-0.745-0.257-0.903-0.605l-0.999,1.502c-0.222,0.334-0.242,0.762-0.053,1.116
						c0.189,0.353,0.558,0.574,0.958,0.574H13.9l0.014,0.472c0.009,0.287,0.246,0.483,0.499,0.483c0.097,0,0.196-0.029,0.286-0.093
						l1.518-1.077C16.508,31.803,16.495,31.369,16.193,31.181z"/>
				</g>
			</g>
		</g>
	</g>
	<g>
		<g>
			<path class="st6" d="M63.26,21.23H49.099c-3.528,0-6.388,2.708-6.388,6.048v76.339c0,3.34,2.86,6.048,6.388,6.048H63.26V61.423
				l-1.328-3.608c0.817-0.907,1.328-2.096,1.328-3.412V21.23z"/>
		</g>
	</g>
	<g>
		<g>
			<path class="st9" d="M51.355,108.266l-2.659-4.763c-0.264-0.474-0.979-0.474-1.244,0l-2.579,4.619
				c1.128,0.949,2.597,1.544,4.226,1.544h0.403v-0.419h1.231C51.264,109.247,51.603,108.711,51.355,108.266z"/>
		</g>
	</g>
	<g>
		<g>
			<g>
				<path class="st7" d="M103.596,13.746H54.281c-3.528,0-6.388,2.708-6.388,6.048v76.339c0,3.34,2.86,6.048,6.388,6.048h49.315
					c3.528,0,6.388-2.708,6.388-6.048V19.795C109.983,16.454,107.124,13.746,103.596,13.746z"/>
			</g>
		</g>
		<g>
			<g>
				<rect x="54.003" y="20.258" class="st0" width="49.734" height="72.96"/>
			</g>
		</g>
		<g>
			<g>
				<g>
					<g>
						<g>
							<path class="st19" d="M62.74,35.584h-2.86c-0.671,0-1.215,0.544-1.215,1.215v2.86c0,0.671,0.544,1.215,1.215,1.215h2.86
								c0.671,0,1.215-0.544,1.215-1.215v-2.86C63.955,36.128,63.411,35.584,62.74,35.584z"/>
						</g>
					</g>
					<g>
						<g>
							<g>
								<path class="st7" d="M62.74,34.906h-2.86c-1.044,0-1.893,0.849-1.893,1.893v2.86c0,1.044,0.849,1.893,1.893,1.893h2.86
									c1.044,0,1.893-0.849,1.893-1.893v-2.86C64.633,35.755,63.784,34.906,62.74,34.906z M63.277,39.659
									c0,0.295-0.241,0.537-0.536,0.537h-2.86c-0.295,0-0.536-0.241-0.536-0.537v-2.86c0-0.295,0.241-0.537,0.536-0.537h2.86
									c0.295,0,0.536,0.241,0.536,0.537V39.659z"/>
							</g>
						</g>
					</g>
				</g>
				<g>
					<g>
						<path class="st3" d="M70.822,33.891c-0.376-0.646-1.204-0.864-1.856-0.486c-2.133,1.246-3.95,3.012-5.272,5.094
							c-0.713-0.883-1.563-1.656-2.519-2.284c-0.623-0.411-1.465-0.234-1.878,0.389c-0.411,0.627-0.237,1.468,0.389,1.878
							c1.245,0.817,2.247,1.955,2.897,3.294c0.228,0.468,0.702,0.763,1.22,0.763h0.03c0.531-0.012,1.005-0.333,1.215-0.82
							c1.073-2.486,2.95-4.608,5.288-5.974C70.982,35.369,71.199,34.538,70.822,33.891z"/>
					</g>
				</g>
			</g>
			<g>
				<g>
					<g>
						<g>
							<path class="st19" d="M62.74,46.328h-2.86c-0.671,0-1.215,0.544-1.215,1.215v2.86c0,0.671,0.544,1.215,1.215,1.215h2.86
								c0.671,0,1.215-0.544,1.215-1.215v-2.86C63.955,46.871,63.411,46.328,62.74,46.328z"/>
						</g>
					</g>
					<g>
						<g>
							<g>
								<path class="st7" d="M62.74,45.649h-2.86c-1.044,0-1.893,0.849-1.893,1.893v2.86c0,1.044,0.849,1.893,1.893,1.893h2.86
									c1.044,0,1.893-0.849,1.893-1.893v-2.86C64.633,46.498,63.784,45.649,62.74,45.649z M63.277,50.402
									c0,0.295-0.241,0.536-0.536,0.536h-2.86c-0.295,0-0.536-0.241-0.536-0.536v-2.86c0-0.295,0.241-0.536,0.536-0.536h2.86
									c0.295,0,0.536,0.241,0.536,0.536V50.402z"/>
							</g>
						</g>
					</g>
				</g>
				<g>
					<g>
						<path class="st3" d="M70.822,44.634c-0.376-0.645-1.204-0.862-1.856-0.486c-2.133,1.246-3.95,3.012-5.272,5.094
							c-0.713-0.883-1.563-1.656-2.519-2.283c-0.623-0.409-1.465-0.234-1.878,0.389c-0.411,0.627-0.237,1.468,0.389,1.878
							c1.245,0.817,2.247,1.955,2.897,3.294c0.228,0.467,0.702,0.763,1.22,0.763h0.03c0.531-0.012,1.005-0.333,1.215-0.82
							c1.073-2.486,2.95-4.608,5.288-5.974C70.982,46.112,71.199,45.282,70.822,44.634z"/>
					</g>
				</g>
			</g>
			<g>
				<g>
					<g>
						<g>
							<path class="st19" d="M62.74,57.071h-2.86c-0.671,0-1.215,0.544-1.215,1.215v2.86c0,0.671,0.544,1.215,1.215,1.215h2.86
								c0.671,0,1.215-0.544,1.215-1.215v-2.86C63.955,57.615,63.411,57.071,62.74,57.071z"/>
						</g>
					</g>
					<g>
						<g>
							<g>
								<path class="st7" d="M62.74,56.393h-2.86c-1.044,0-1.893,0.849-1.893,1.893v2.86c0,1.044,0.849,1.893,1.893,1.893h2.86
									c1.044,0,1.893-0.849,1.893-1.893v-2.86C64.633,57.242,63.784,56.393,62.74,56.393z M63.277,61.145
									c0,0.295-0.241,0.536-0.536,0.536h-2.86c-0.295,0-0.536-0.241-0.536-0.536v-2.86c0-0.295,0.241-0.536,0.536-0.536h2.86
									c0.295,0,0.536,0.241,0.536,0.536V61.145z"/>
							</g>
						</g>
					</g>
				</g>
				<g>
					<g>
						<path class="st3" d="M70.822,55.377c-0.38-0.649-1.213-0.864-1.856-0.486c-2.133,1.248-3.95,3.013-5.272,5.096
							c-0.713-0.883-1.563-1.656-2.519-2.284c-0.623-0.409-1.465-0.236-1.878,0.389c-0.411,0.626-0.237,1.468,0.389,1.878
							c1.245,0.817,2.247,1.955,2.897,3.294c0.228,0.467,0.702,0.763,1.22,0.763h0.03c0.531-0.012,1.005-0.333,1.215-0.82
							c1.072-2.486,2.95-4.608,5.288-5.975C70.982,56.854,71.199,56.023,70.822,55.377z"/>
					</g>
				</g>
			</g>
			<g>
				<g>
					<g>
						<g>
							<path class="st19" d="M62.74,67.815h-2.86c-0.671,0-1.215,0.544-1.215,1.215v2.86c0,0.671,0.544,1.215,1.215,1.215h2.86
								c0.671,0,1.215-0.544,1.215-1.215v-2.86C63.955,68.359,63.411,67.815,62.74,67.815z"/>
						</g>
					</g>
					<g>
						<g>
							<g>
								<path class="st7" d="M62.74,67.136h-2.86c-1.044,0-1.893,0.849-1.893,1.893v2.86c0,1.044,0.849,1.893,1.893,1.893h2.86
									c1.044,0,1.893-0.849,1.893-1.893v-2.86C64.633,67.985,63.784,67.136,62.74,67.136z M63.277,71.889
									c0,0.295-0.241,0.536-0.536,0.536h-2.86c-0.295,0-0.536-0.241-0.536-0.536v-2.86c0-0.296,0.241-0.537,0.536-0.537h2.86
									c0.295,0,0.536,0.241,0.536,0.537V71.889z"/>
							</g>
						</g>
					</g>
				</g>
				<g>
					<g>
						<path class="st3" d="M70.822,66.12c-0.38-0.648-1.213-0.865-1.856-0.486c-2.133,1.248-3.95,3.013-5.272,5.096
							c-0.714-0.885-1.563-1.657-2.521-2.284c-0.625-0.412-1.468-0.236-1.877,0.391c-0.411,0.627-0.236,1.466,0.391,1.877
							c1.242,0.815,2.244,1.954,2.896,3.294c0.228,0.467,0.702,0.763,1.22,0.763h0.03c0.531-0.012,1.005-0.333,1.215-0.82
							c1.072-2.486,2.95-4.608,5.288-5.975C70.982,67.597,71.199,66.767,70.822,66.12z"/>
					</g>
				</g>
			</g>
			<g>
				<g>
					<g>
						<g>
							<path class="st19" d="M62.74,78.559h-2.86c-0.671,0-1.215,0.544-1.215,1.215v2.86c0,0.671,0.544,1.215,1.215,1.215h2.86
								c0.671,0,1.215-0.544,1.215-1.215v-2.86C63.955,79.102,63.411,78.559,62.74,78.559z"/>
						</g>
					</g>
					<g>
						<g>
							<g>
								<path class="st7" d="M62.74,77.88h-2.86c-1.044,0-1.893,0.849-1.893,1.893v2.86c0,1.044,0.849,1.893,1.893,1.893h2.86
									c1.044,0,1.893-0.849,1.893-1.893v-2.86C64.633,78.729,63.784,77.88,62.74,77.88z M63.277,82.633
									c0,0.295-0.241,0.536-0.536,0.536h-2.86c-0.295,0-0.536-0.241-0.536-0.536v-2.86c0-0.295,0.241-0.536,0.536-0.536h2.86
									c0.295,0,0.536,0.241,0.536,0.536V82.633z"/>
							</g>
						</g>
					</g>
				</g>
				<g>
					<g>
						<path class="st3" d="M70.822,76.864c-0.38-0.649-1.213-0.865-1.856-0.486c-2.133,1.248-3.95,3.013-5.272,5.096
							c-0.714-0.885-1.563-1.657-2.521-2.284c-0.625-0.411-1.468-0.236-1.877,0.391c-0.411,0.626-0.236,1.466,0.391,1.877
							c1.242,0.815,2.244,1.954,2.896,3.294c0.228,0.468,0.702,0.763,1.22,0.763h0.03c0.531-0.012,1.005-0.333,1.215-0.82
							c1.072-2.486,2.95-4.608,5.288-5.975C70.982,78.341,71.199,77.511,70.822,76.864z"/>
					</g>
				</g>
			</g>
			<g>
				<g>
					<path class="st4" d="M97.094,37.205h-23.51c-0.701,0-1.275,0.574-1.275,1.275v0.194c0,0.701,0.574,1.275,1.275,1.275h23.51
						c0.701,0,1.275-0.574,1.275-1.275V38.48C98.368,37.779,97.795,37.205,97.094,37.205z"/>
				</g>
			</g>
			<g>
				<g>
					<path class="st4" d="M97.094,47.72h-23.51c-0.701,0-1.275,0.574-1.275,1.275v0.194c0,0.701,0.574,1.275,1.275,1.275h23.51
						c0.701,0,1.275-0.574,1.275-1.275v-0.194C98.368,48.294,97.795,47.72,97.094,47.72z"/>
				</g>
			</g>
			<g>
				<g>
					<path class="st4" d="M97.094,58.236h-23.51c-0.701,0-1.275,0.574-1.275,1.275v0.194c0,0.701,0.574,1.275,1.275,1.275h23.51
						c0.701,0,1.275-0.574,1.275-1.275V59.51C98.368,58.809,97.795,58.236,97.094,58.236z"/>
				</g>
			</g>
			<g>
				<g>
					<path class="st4" d="M97.094,68.75h-23.51c-0.701,0-1.275,0.574-1.275,1.275v0.194c0,0.701,0.574,1.275,1.275,1.275h23.51
						c0.701,0,1.275-0.574,1.275-1.275v-0.194C98.368,69.324,97.795,68.75,97.094,68.75z"/>
				</g>
			</g>
			<g>
				<g>
					<path class="st4" d="M97.094,79.265h-23.51c-0.701,0-1.275,0.574-1.275,1.275v0.194c0,0.701,0.574,1.275,1.275,1.275h23.51
						c0.701,0,1.275-0.574,1.275-1.275V80.54C98.368,79.839,97.795,79.265,97.094,79.265z"/>
				</g>
			</g>
		</g>
		<g>
			<g>
				<path class="st1" d="M87.363,13.62H70.697c-0.921,0-1.668,0.747-1.668,1.668v8.387c0,0.921,0.747,1.668,1.668,1.668h16.666
					c0.921,0,1.668-0.747,1.668-1.668v-8.387C89.031,14.366,88.284,13.62,87.363,13.62z"/>
			</g>
		</g>
		<g>
			<g>
				<path class="st11" d="M87.363,11.916H70.697c-0.921,0-1.668,0.747-1.668,1.668v8.387c0,0.921,0.747,1.668,1.668,1.668h16.666
					c0.921,0,1.668-0.747,1.668-1.668v-8.387C89.031,12.663,88.284,11.916,87.363,11.916z"/>
			</g>
		</g>
		<g>
			<g>
				<path class="st3" d="M87.363,11.916H70.697c-0.921,0-1.668,0.747-1.668,1.668v2.43h20.002v-2.43
					C89.031,12.663,88.284,11.916,87.363,11.916z"/>
			</g>
		</g>
	</g>
	<g>
		<g>
			<rect x="42.711" y="59.521" class="st1" width="5.182" height="1.902"/>
		</g>
	</g>
</g>
</svg>
